# xmcd
#
# Track frame offsets:
#	150
#	9289
#	20846
#	44448
#	56128
#	67363
#	80354
#	89538
#	106849
#	116463
#	133197
#	150607
#	162985
#	174280
#	182899
#	197492
#
# Disc length: 2801 seconds
#
# Revision: 0
# Processed by: cddbd v1.5.2PL0 Copyright (c) Steve Scherf et al.
# Submitted via: EasyCDDAExtractor 15.3.0.1
#
DISCID=d70aef10
DTITLE=Bonanza - Správnej tón
DYEAR=2011
DGENRE=Country/Folk
TTITLE0=Bonanza
TTITLE1=Slečna sen (The Last Think  On My Mind)
TTITLE2=Dálniční hlídka (Higway patrolman)
TTITLE3=Buď pořád se mnou (High noon)
TTITLE4=Je nás jedenáct (Hello, Mary Lou)
TTITLE5=Blízko Little Big hornu (Jim Bridger)
TTITLE6=Modrým ránem (Kiss an angel good mornin')
TTITLE7=Taková je láska (Am visat)
TTITLE8=Správnej tón (The new raunchy)
TTITLE9=Tvého muže stín (The shadow of your distant friend)
TTITLE10=Cgvíle, kdy jsem byl s ní (Me and bobby me gee)
TTITLE11=Náruč tvá (Blackjack country chains)
TTITLE12=Mám radost (I take a lot of pride in what i am)
TTITLE13=Jukebox lásky (He'll have to go)
TTITLE14=Tisíc dnů být s tebou (Daddy Frank)
TTITLE15=Není fér (I don't care)
EXTD=
EXTT0=
EXTT1=
EXTT2=
EXTT3=
EXTT4=
EXTT5=
EXTT6=
EXTT7=
EXTT8=
EXTT9=
EXTT10=
EXTT11=
EXTT12=
EXTT13=
EXTT14=
EXTT15=
PLAYORDER=
